# xmcd
#
# Track frame offsets: 
#        150
#        10712
#        32136
#
# Disc length: 1079 seconds
#
# Revision: 0
# Processed by: cddbd v1.5.2PL0 Copyright (c) Steve Scherf et al.
# Submitted via: ExactAudioCopy v1.0b3
#
DISCID=17043503
DTITLE=The Allman Brothers Band - Instant Live - NY State Fair - Syrac
DTITLE=use,NY
DYEAR=2005
DGENRE=
TTITLE0=Track01 Crowd
TTITLE1=Track02 Midnight Rider
TTITLE2=Track03 Southbound
EXTD=
EXTT0=
EXTT1=
EXTT2=
PLAYORDER=
